<svg version="1" xmlns="http://www.w3.org/2000/svg" width="666.667" height="666.667" viewBox="0 0 500.000000 500.000000"><path d="M323.9 143.9c-18.5 2.6-42.9 15.2-58.8 30.4l-5.3 5.2 2.5-5.1c5.6-11.1 8.4-23.3 5.5-23.5-4.8-.4-17.3 3.5-24.7 7.7-2.7 1.6-21.7 19.7-46.1 43.9l-41.5 41.3-6.5.7c-12.7 1.4-26.2 6.9-34.5 14l-4 3.4 6.8 6.8 6.7 6.9-7 6.9-7 7 10.2 10.2 10.3 10.3 7-7 7.1-7 3.9 4 3.9 4-3.9 4-3.9 4 8.2 8.2 8.2 8.2 4.2-3.9 4.3-4-4 4.3-3.9 4.2 8.2 8.2 8.2 8.2 4-3.9 4-3.9 4.5 4.4 4.5 4.4-7 7.1-7 7 10.3 10.3 10.2 10.2 7-7 6.9-7 5.9 5.8 5.8 5.7 3.5-4c6.4-7.5 13.4-24.8 13.4-33.1 0-2.4 6.7-9.6 43.3-46.4 46.3-46.5 45.6-45.7 50.6-60.9 2.5-7.7 2.7-11 .5-11.8-2-.7-12.6 2.1-19.4 5.3-5.9 2.7-6 3 2.1-6.6 9.8-11.6 18.7-27.2 22.7-39.7 4.8-14.6 5.2-31.1.9-35.1-2.6-2.4-12.2-3.4-20.8-2.3z"/></svg>